PathFileType	4	(X/Y/Z)	Patient4_TMGait_0pt7_01_right_17.trc.trc
DataRate	CameraRate	NumFrames	NumMarkers	Units	OrigDataRate	OrigDataStartFrame	OrigNumFrames
86.419753086420	86.419753086420	4	33	mm	86.419753086420	89	       141
Frame#	Time	Sacral			L.Shoulder			Chest			R.Shoulder			Neck			R.ASIS			L.ASIS			R.Thigh.Superior			R.Thigh.Lateral			R.Thigh.Inferior			R.Patella			L.Thigh.Superior			L.Thigh.Lateral			L.Thigh.Inferior			L.Patella			L.Shank.Superior			L.Shank.Lateral			L.Shank.Inferior			R.Shank.Superior			R.Shank.Lateral			R.Shank.Inferior			R.Heel			R.Midfoot.Superior			R.Midfoot.Lateral			R.Toe			L.Heel			L.Midfoot.Lateral			L.Midfoot.Superior			L.Toe			L.Elbow			L.Wrist			R.Elbow			R.Wrist			
		X1	Y1	Z1	X2	Y2	Z2	X3	Y3	Z3	X4	Y4	Z4	X5	Y5	Z5	X6	Y6	Z6	X7	Y7	Z7	X8	Y8	Z8	X9	Y9	Z9	X10	Y10	Z10	X11	Y11	Z11	X12	Y12	Z12	X13	Y13	Z13	X14	Y14	Z14	X15	Y15	Z15	X16	Y16	Z16	X17	Y17	Z17	X18	Y18	Z18	X19	Y19	Z19	X20	Y20	Z20	X21	Y21	Z21	X22	Y22	Z22	X23	Y23	Z23	X24	Y24	Z24	X25	Y25	Z25	X26	Y26	Z26	X27	Y27	Z27	X28	Y28	Z28	X29	Y29	Z29	X30	Y30	Z30	X31	Y31	Z31	X32	Y32	Z32	X33	Y33	Z33	

89	19.928285714286	830.543782888820	1010.180521086576	454.067367756075	996.912578805109	1421.424237377218	238.674002831226	1114.631651461233	1358.061992527361	392.519407006374	1052.124039478358	1448.461053347743	567.646951995621	1014.385655125126	1491.977125389186	388.808751974004	1059.540826556268	941.199294095439	556.453680377809	1032.573284758861	956.299824220462	283.417999826098	1100.271067740366	738.693834862488	535.610470717905	1024.167356306384	627.949133575678	602.648137967288	1103.982262186366	570.048019038158	526.398359613738	1094.854152798580	458.666558217933	546.061599051817	1098.369617700480	761.304412422759	308.621206704629	1017.505209704799	638.704372683628	255.258718378750	1114.101203371292	569.124723067681	311.460004764811	1122.243494425472	499.475499527748	319.914253175493	1099.485068085765	425.797771919635	313.558684404784	1015.033886070640	304.970487459167	266.947904015716	1080.080366080797	198.199040704703	335.407999458182	1013.819936167624	394.561851774811	550.773034434588	891.552438436428	359.118981364731	611.455863387850	872.908210334443	252.404696426971	558.901046114393	666.914157709254	188.635777431995	530.461174650976	839.018005482687	140.453862686668	571.883878716311	729.611542958749	136.164451651822	606.205817181044	909.131305613064	38.205890493811	602.551036205209	965.143234126075	38.359353838140	383.539863871504	1037.630782824086	35.258339174500	301.220830678659	1119.576075309719	97.905404054485	325.180862519298	1248.445222139032	48.343805267467	296.093343562231	884.412033942834	1078.465189344858	162.700037331599	878.516711592031	819.737804580641	184.556471525875	1142.305574095430	1121.302480252350	692.945131658792	1346.257916255143	1189.179230320241	567.755928245212	
90	19.939857142857	828.946991862608	1010.816750026130	451.384255906709	997.581163394824	1422.276025146920	236.734081209852	1113.683437296716	1358.879347626982	391.796886800682	1049.502581881403	1449.382499433407	566.314344539485	1013.505593645169	1492.914806321532	386.951781376541	1057.748401020102	942.253447414884	555.137649249025	1032.012479144519	957.284397921673	282.032329355101	1104.618299672885	742.928001622882	533.949164113424	1032.873289731615	630.274624093253	601.663271722582	1114.656775847342	574.394820574493	525.544507189701	1107.971773653383	461.827975750417	545.714707070263	1095.238873990766	760.265138296864	305.936200462735	1012.501049162727	638.849262738768	253.802599548707	1108.245852538853	568.229113107177	310.001399264404	1115.420282423283	498.797871142888	318.699644779676	1092.480379436408	425.457367630186	312.459330703778	1007.512705327360	304.837356286460	266.241775071129	1072.250624969226	198.015266823894	334.922499650052	1025.375566148196	397.952981160350	550.184615606474	901.504034868726	366.246590975420	609.984115296086	880.250534224073	259.914939437068	558.017303481311	672.887178934851	203.206194489222	528.164709016118	842.934880265271	148.463139845259	571.143499781904	732.937054716350	148.537797530044	604.621693378362	908.836922989549	41.997059305189	603.058510833101	956.961033057654	38.346210002844	383.473116141854	1029.396537377545	35.164611618594	301.145512810088	1111.419939784804	97.759328375974	325.020943578177	1240.274795737674	48.069405070044	295.941314098539	890.961176294587	1077.566497237667	157.671128244362	894.821072616044	818.489108040587	178.221939007719	1129.259730674187	1119.412551929420	693.297645479923	1339.975903659801	1170.564301388959	570.513464633221	
91	19.951428571429	827.235856580235	1011.308775150942	448.783602401652	998.174904685641	1422.992107200740	234.978463975334	1112.605564262274	1359.567508103151	391.298019526547	1046.672919077305	1450.107829514999	565.201987212692	1012.532186300932	1493.732558958037	385.313724694599	1055.901621081994	943.183412444922	553.837132970072	1031.379329338516	958.209327381653	280.701069916844	1108.681997678269	747.338284093822	532.267159580180	1041.384507796192	633.018919127916	600.818561089330	1124.967179198980	579.247450074930	524.783713350420	1120.975661718694	465.672068199047	545.388629983507	1092.145865439140	759.302315160132	303.616784551923	1007.760733954494	639.013425015641	252.433536531778	1102.539233340857	567.383325697642	308.791386260951	1108.741577605219	498.134750404459	317.716084202796	1085.646381478182	425.117743836562	311.546855860713	1000.216019035649	304.725593267006	265.608598694523	1064.534635465421	197.822814905774	334.542548739487	1037.152348433993	401.767379818177	549.713986164167	911.941851974869	373.277608151347	608.679245890307	888.491576049150	267.310431359502	557.248889895397	680.202752805337	216.468284870169	526.010805799974	848.296410113915	156.461432721330	570.510288519453	737.904895741290	160.094878941708	603.138214991306	910.610924825697	46.602580275264	603.566032786828	948.780799757403	38.351835166457	383.403184942375	1021.172698623441	35.094753982630	301.081003493681	1103.292225443332	97.603271899081	324.904568565755	1232.119421717982	47.754792534891	295.806753021810	898.043966768839	1076.597251875872	152.605025840818	911.842315911864	817.536910119185	171.889559423291	1116.052061667630	1117.640595875722	693.517098636141	1332.769903119699	1151.031210715663	573.891196526013	
92	19.963000000000	825.434074439301	1011.694698392617	446.258883389623	998.647891582420	1423.601314039056	233.416803346358	1111.403524952130	1360.158773491525	390.989469703744	1043.687573286164	1450.655888432286	564.293992130072	1011.478084135985	1494.444105022853	383.901419257964	1054.018726797835	944.021427990521	552.508872993557	1030.695083808081	959.084751766832	279.401410757365	1112.409589324846	751.897197703467	530.567621750496	1049.592469085325	636.164331166762	600.107876273936	1134.820199425634	584.570322862961	524.122703133798	1133.754738985987	470.164905125775	545.121457049398	1089.162177993200	758.435925602803	301.692158671252	1003.320525114224	639.191305060874	251.163939282638	1097.028364295039	566.578756991041	307.819915572642	1102.262688603819	497.483409747398	316.972035088657	1079.029717002639	424.774303841260	310.829316198110	993.177282979184	304.640102681709	265.058054408978	1056.953296544985	197.623030526213	334.276442331289	1049.054880557681	405.965205844394	549.390738939208	922.775816984257	380.058711121713	607.600961240910	897.621104054216	274.384367090444	556.653481460684	688.788809583127	228.065859298545	524.144161003730	855.183456104355	164.134794700798	570.045477160755	744.542251480078	170.451097337876	601.856812373394	914.623633395623	51.735969314827	604.038760348026	940.608491861016	38.372543421017	383.332498110675	1012.968287652336	35.052871888353	301.027068806282	1095.191104713001	97.449206540456	324.833486183231	1223.981525633005	47.431094458175	295.691982464527	905.697408111938	1075.612519124367	147.545750929616	929.522259510937	816.962333687729	165.607390482698	1102.761940151730	1115.984463165725	693.599058559016	1324.496991725818	1130.723412125256	577.926002295412	
